<svg width="74" height="74" viewBox="0 0 74 74" fill="none" xmlns="http://www.w3.org/2000/svg">
	<path d="M30.0625 64.75C45.3884 64.75 57.8125 52.3259 57.8125 37C57.8125 21.6741 45.3884 9.25 30.0625 9.25C14.7366 9.25 2.3125 21.6741 2.3125 37C2.3125 52.3259 14.7366 64.75 30.0625 64.75Z" stroke="#120053" stroke-width="2" stroke-miterlimit="10" stroke-linecap="round" stroke-linejoin="round" />
	<path d="M30.0625 41.625C32.6168 41.625 34.6875 39.5543 34.6875 37C34.6875 34.4457 32.6168 32.375 30.0625 32.375C27.5082 32.375 25.4375 34.4457 25.4375 37C25.4375 39.5543 27.5082 41.625 30.0625 41.625Z" stroke="#120053" stroke-width="2" stroke-miterlimit="10" stroke-linecap="round" stroke-linejoin="round" />
	<path d="M18.5 30.0625C21.0543 30.0625 23.125 27.9918 23.125 25.4375C23.125 22.8832 21.0543 20.8125 18.5 20.8125C15.9457 20.8125 13.875 22.8832 13.875 25.4375C13.875 27.9918 15.9457 30.0625 18.5 30.0625Z" stroke="#120053" stroke-width="2" stroke-miterlimit="10" stroke-linecap="round" stroke-linejoin="round" />
	<path d="M18.5 53.1875C21.0543 53.1875 23.125 51.1168 23.125 48.5625C23.125 46.0082 21.0543 43.9375 18.5 43.9375C15.9457 43.9375 13.875 46.0082 13.875 48.5625C13.875 51.1168 15.9457 53.1875 18.5 53.1875Z" stroke="#120053" stroke-width="2" stroke-miterlimit="10" stroke-linecap="round" stroke-linejoin="round" />
	<path d="M41.625 53.1875C44.1793 53.1875 46.25 51.1168 46.25 48.5625C46.25 46.0082 44.1793 43.9375 41.625 43.9375C39.0707 43.9375 37 46.0082 37 48.5625C37 51.1168 39.0707 53.1875 41.625 53.1875Z" stroke="#120053" stroke-width="2" stroke-miterlimit="10" stroke-linecap="round" stroke-linejoin="round" />
	<path d="M41.625 30.0625C44.1793 30.0625 46.25 27.9918 46.25 25.4375C46.25 22.8832 44.1793 20.8125 41.625 20.8125C39.0707 20.8125 37 22.8832 37 25.4375C37 27.9918 39.0707 30.0625 41.625 30.0625Z" stroke="#120053" stroke-width="2" stroke-miterlimit="10" stroke-linecap="round" stroke-linejoin="round" />
	<path d="M71.6875 30.0625C71.6875 49.2563 56.1938 64.75 37 64.75H30.0625" stroke="#120053" stroke-width="2" stroke-miterlimit="10" stroke-linecap="round" stroke-linejoin="round" />
</svg>
