<svg width="24" height="19" viewBox="0 0 24 19" fill="none" xmlns="http://www.w3.org/2000/svg">
<path d="M20.2597 2.7304L21.1241 1.875H19.908H4.092H2.8759L3.7403 2.7304L10.7948 9.71145C10.7951 9.7117 10.7953 9.71195 10.7956 9.7122C10.9537 9.86977 11.1415 9.99457 11.3479 10.0797C11.5547 10.1649 11.7763 10.2088 12 10.2088C12.2237 10.2088 12.4453 10.1649 12.6521 10.0797C12.8585 9.99457 13.0463 9.86977 13.2044 9.7122C13.2047 9.71195 13.2049 9.7117 13.2052 9.71145L20.2597 2.7304ZM2.7517 3.69397L1.9 2.85115V4.04937V15.4375C1.9 15.8868 2.08039 16.3165 2.39977 16.6326C2.71898 16.9485 3.15081 17.125 3.6 17.125H20.4C20.8492 17.125 21.281 16.9485 21.6002 16.6326C21.9196 16.3165 22.1 15.8868 22.1 15.4375V4.04937V2.85115L21.2483 3.69397L14.1925 10.6763C13.6117 11.2504 12.8232 11.5737 12 11.5737C11.1768 11.5737 10.3883 11.2504 9.80748 10.6763L2.7517 3.69397ZM3.6 0.5H20.4C21.2239 0.5 22.0129 0.823914 22.5939 1.39883C23.1747 1.97357 23.5 2.75197 23.5 3.5625V15.4375C23.5 16.248 23.1747 17.0264 22.5939 17.6012C22.0129 18.1761 21.2239 18.5 20.4 18.5H3.6C2.77615 18.5 1.98708 18.1761 1.40611 17.6012C0.82532 17.0264 0.5 16.248 0.5 15.4375V3.5625C0.5 2.75197 0.82532 1.97357 1.40611 1.39883C1.98708 0.823914 2.77615 0.5 3.6 0.5Z" fill="white" stroke="white"/>
</svg>
