<svg width="54" height="47" viewBox="0 0 54 47" fill="none" xmlns="http://www.w3.org/2000/svg">
<path d="M49.0402 5.51174C46.175 2.90384 42.3764 1.31826 38.3352 1.04336C34.2939 0.768465 30.2785 1.8225 27.019 4.01378C23.5854 1.68983 19.3116 0.636044 15.0583 1.06462C10.805 1.4932 6.88817 3.37231 4.09649 6.32355C1.30481 9.27478 -0.154319 13.0789 0.0129412 16.9699C0.180201 20.8609 1.96142 24.5497 4.99792 27.2935L25.103 45.5882C25.3539 45.8184 25.6523 46.0011 25.9812 46.1257C26.3101 46.2504 26.6628 46.3146 27.019 46.3146C27.3753 46.3146 27.728 46.2504 28.0569 46.1257C28.3857 46.0011 28.6842 45.8184 28.9351 45.5882L49.0402 27.2935C50.6126 25.8636 51.8599 24.1658 52.7109 22.2971C53.562 20.4284 54 18.4254 54 16.4026C54 14.3798 53.562 12.3768 52.7109 10.5081C51.8599 8.63942 50.6126 6.94162 49.0402 5.51174ZM45.235 23.831L27.019 40.3822L8.80304 23.831C7.1978 22.3642 6.1043 20.4988 5.65971 18.4687C5.21512 16.4385 5.43923 14.3342 6.30394 12.4195C7.16865 10.5049 8.63544 8.86518 10.5203 7.70618C12.4052 6.54718 14.6242 5.92046 16.899 5.90465C19.938 5.91142 22.8499 7.01543 24.995 8.97423C25.2459 9.20439 25.5444 9.38708 25.8733 9.51175C26.2021 9.63642 26.5548 9.70061 26.9111 9.70061C27.2674 9.70061 27.6201 9.63642 27.9489 9.51175C28.2778 9.38708 28.5763 9.20439 28.8272 8.97423C31.0355 7.23287 33.8885 6.32001 36.8086 6.4204C39.7287 6.52078 42.4978 7.62692 44.5555 9.51494C46.6132 11.403 47.8058 13.9318 47.8918 16.5897C47.9779 19.2476 46.9511 21.836 45.0192 23.831H45.235Z" fill="white"/>
</svg>
