<svg width="24" height="24" viewBox="0 0 24 24" fill="none" xmlns="http://www.w3.org/2000/svg">
<path d="M11.9999 0C9.15054 0.000118158 6.39414 1.01413 4.22396 2.8606C2.05378 4.70706 0.61143 7.26549 0.154992 10.0781C-0.301447 12.8907 0.257812 15.774 1.7327 18.212C3.20759 20.65 5.50186 22.4836 8.205 23.3848C8.80499 23.4898 9.02999 23.1299 9.02999 22.8148C9.02999 22.5298 9.01498 21.5848 9.01498 20.5799C5.99999 21.1348 5.22 19.8449 4.98 19.1699C4.71369 18.5134 4.29153 17.9316 3.75001 17.4749C3.33001 17.2499 2.73001 16.6949 3.73499 16.6799C4.11874 16.7215 4.48679 16.8551 4.80796 17.0692C5.12913 17.2833 5.39395 17.5717 5.57999 17.9099C5.74412 18.2047 5.96481 18.4643 6.22942 18.6737C6.49403 18.8831 6.79736 19.0382 7.12202 19.1301C7.44669 19.2221 7.78631 19.2491 8.12143 19.2096C8.45655 19.1701 8.78058 19.0648 9.07494 18.8999C9.12689 18.2898 9.39877 17.7194 9.83996 17.2949C7.16998 16.9949 4.38 15.9599 4.38 11.37C4.36314 10.1773 4.80322 9.02346 5.60999 8.14498C5.24313 7.10845 5.28606 5.97093 5.72999 4.965C5.72999 4.965 6.73495 4.64999 9.02997 6.19499C10.9935 5.65496 13.0664 5.65496 15.0299 6.19499C17.3249 4.635 18.3299 4.965 18.3299 4.965C18.7739 5.97092 18.8168 7.10846 18.4499 8.14498C19.2591 9.02196 19.6996 10.1768 19.6799 11.37C19.6799 15.9749 16.8749 16.9949 14.2049 17.2949C14.4913 17.5852 14.7119 17.9337 14.8516 18.3167C14.9914 18.6998 15.0471 19.1084 15.0149 19.5149C15.0149 21.1199 14.9999 22.4099 14.9999 22.8149C14.9999 23.1299 15.2249 23.5049 15.8249 23.3849C18.5233 22.4763 20.811 20.6384 22.2796 18.1991C23.7482 15.7599 24.3021 12.8781 23.8425 10.0682C23.3829 7.25832 21.9397 4.70321 19.7705 2.85899C17.6012 1.01477 14.8472 0.00148188 11.9999 0Z" fill="white"/>
</svg>
